<svg xmlns="http://www.w3.org/2000/svg" viewBox="0 0 1706.58 472.4"><defs><style>.cls-1{fill:#e9481e;}</style></defs><g id="레이어_2" data-name="레이어 2"><g id="레이어_1-2" data-name="레이어 1"><path class="cls-1" d="M758.8,472.4a117.83,117.83,0,0,1-19.48-1.63h0c-45.65-7.65-70-37.59-80.38-54.76a218.92,218.92,0,0,0-151-102.33c-1.46-.25-2.92-.48-4.4-.69-1.22-.18-2.39-.37-3.56-.56A157.22,157.22,0,0,1,434.72,29.29,156.2,156.2,0,0,1,552,2.2c70,11.74,110,63.71,124.15,108.43A218.45,218.45,0,0,0,802.58,247.74c43,17.47,81.17,66.82,71,127.32A116.8,116.8,0,0,1,758.8,472.4Zm-233-420.52a105.43,105.43,0,0,0-17.29,209.39q1.23.21,2.46.39c1.8.26,3.64.55,5.49.86A270.72,270.72,0,0,1,703.27,389.09c5.82,9.58,19.36,26.29,44.63,30.53h0a64.84,64.84,0,0,0,74.55-53.14c5.63-33.6-15.56-61-39.4-70.69A270.16,270.16,0,0,1,626.66,126.23c-9.48-30.08-36.32-65-83.25-72.88A106.77,106.77,0,0,0,525.83,51.88Z"/><path d="M355.06,113.69,281.41,352.55H223.48L177.65,237.26,132.71,352.55H74.78L0,113.69H70.67l38.74,137.67,56.91-136.49h22.77L247,251.47l38-137.78Z"/><path d="M999.32,279.47H975.46v73.08H909.65V113.69h103.53c51.5,0,88.82,34.6,88.82,84.53,0,29.31-14.31,53.33-37.91,67.46l47.43,86.87h-73.45ZM975.46,224h30.06c18.39,0,29-11.08,29-26s-10.59-25.87-29-25.87H975.46Z"/><path d="M1123.26,113.69h66.68V352.55h-66.68Z"/><path class="cls-1" d="M1439.12,232.92c0,69.71-51.18,119.63-123.3,119.63h-96.68V113.69h96.68C1388.14,113.69,1439.12,163.13,1439.12,232.92Zm-67.46,0c0-35.43-23.57-59-58.94-59h-27.48V292.29h27.48C1348.09,292.29,1371.66,268.16,1371.66,232.92Z"/><path class="cls-1" d="M1575.39,358.59c-76.79,0-131.59-52.47-131.59-125.47s54.8-125.47,131.59-125.47c76.59,0,131.19,52.27,131.19,125.47S1652,358.59,1575.39,358.59Zm0-61.23c36.35,0,62.67-26.86,62.67-64.23s-26.32-64.24-62.67-64.24-63.07,27.05-63.07,64.23,26.71,64.24,63.07,64.24Z"/><path d="M1035.89,434.41h-16.8v14.84h-3.79V434.41H998.71v-3.26h37.18Zm-11.15-24.58a11.38,11.38,0,0,1,5.06,3.24,7.57,7.57,0,0,1,0,9.78,11.51,11.51,0,0,1-5.06,3.21,25.27,25.27,0,0,1-15,0,11.75,11.75,0,0,1-5.06-3.21,7.51,7.51,0,0,1,0-9.78,11.61,11.61,0,0,1,5.06-3.24,25.27,25.27,0,0,1,15,0Zm-15.09,3.68a4.91,4.91,0,0,0,0,8.92,18.09,18.09,0,0,0,15.14,0,4.91,4.91,0,0,0,0-8.92,18.09,18.09,0,0,0-15.14,0Z"/><path d="M1058.4,426h-15v9.86c3.53,0,6.87-.12,10-.34s6.42-.63,9.81-1.22l.31,3.22c-3.46.58-6.82,1-10.07,1.24s-6.76.36-10.52.36h-3.38V422.9h15v-8.77h-15.09v-3.21h19Zm12.4,23.29H1067V407h3.79Z"/><path d="M1112.76,429.64h-37.19v-3h37.19ZM1108.14,442h-24.22v3.89h25.52v2.8h-29.36v-9.39h24.28v-3.53H1080V433h28.16ZM1108,417h-23.91v3.63h24.58v2.8h-28.32v-9h23.81V411h-23.91v-2.8H1108Z"/><path d="M1150,428.35l.31,2.95a92.59,92.59,0,0,1-11.62,1.45V448h-3.84V433c-3.42.18-7.19.26-11.31.26l-.46-3.32Q1140,429.9,1150,428.35Zm-8.09-18.26a8.6,8.6,0,0,1,3.7,3.08,8.09,8.09,0,0,1,1.33,4.54,7.83,7.83,0,0,1-1.33,4.46,8.83,8.83,0,0,1-3.7,3.09,13.67,13.67,0,0,1-10.79,0,9,9,0,0,1-3.74-3.09,7.7,7.7,0,0,1-1.35-4.46,8,8,0,0,1,1.35-4.54,8.77,8.77,0,0,1,3.74-3.08,13.9,13.9,0,0,1,10.79,0Zm-10.25,3.65a4.89,4.89,0,0,0-1.89,4,4.74,4.74,0,0,0,1.89,3.89,7.52,7.52,0,0,0,4.85,1.51,7.71,7.71,0,0,0,4.93-1.51,4.72,4.72,0,0,0,1.92-3.89,4.86,4.86,0,0,0-1.92-4,7.72,7.72,0,0,0-4.93-1.53A7.53,7.53,0,0,0,1131.61,413.74Zm25.08,35.51h-3.84V407h3.84Z"/><path d="M1185.84,415.33h-24.17v-3.17h10.16V407h3.89v5.13h10.12Zm-5,4.46a7,7,0,0,1,2.69,5.7,6.91,6.91,0,0,1-2.69,5.71,13,13,0,0,1-14.21,0,6.89,6.89,0,0,1-2.7-5.71,7,7,0,0,1,2.7-5.7,12.67,12.67,0,0,1,14.21,0ZM1169.29,422a4.44,4.44,0,0,0,0,7,7.09,7.09,0,0,0,4.43,1.29,7.21,7.21,0,0,0,4.49-1.29,4.43,4.43,0,0,0,0-7,7.15,7.15,0,0,0-4.49-1.3A7,7,0,0,0,1169.29,422Zm25.93,26.29h-27.38V436.18h3.84v8.92h23.54Zm-1.81-27.38h6v3.27h-6v14.52h-3.84V407h3.84Z"/><path d="M1235.58,447.12H1232V432.55h-7.37v-3.27H1232v-7.37h-6.64q-3.12,11.41-14.11,18.31l-2.23-2.9a29.55,29.55,0,0,0,9.83-9.52,26.58,26.58,0,0,0,3.86-12.27h-11.93v-3.16h15.77a37.72,37.72,0,0,1-.52,6.38h6V408.07h3.58Zm8.24,2.18h-3.58V407h3.58Z"/><path d="M1284.64,443.85H1247.5v-3.26h16.6V430.42h-12.24V410.5h28.32v19.92h-12.29v10.17h16.75Zm-29.1-16.59h20.85V413.67h-20.85Z"/><path d="M1303.05,410.5a9.3,9.3,0,0,1,3.81,3.48,9.56,9.56,0,0,1,1.38,5.13,9.67,9.67,0,0,1-1.38,5.16,9.22,9.22,0,0,1-3.81,3.5,11.87,11.87,0,0,1-5.49,1.25,12.06,12.06,0,0,1-5.53-1.25,9.3,9.3,0,0,1-3.84-3.5,9.75,9.75,0,0,1-1.37-5.16,9.65,9.65,0,0,1,1.37-5.13,9.39,9.39,0,0,1,3.82-3.48,12,12,0,0,1,5.55-1.24A11.86,11.86,0,0,1,1303.05,410.5Zm-10.55,3.87a6.63,6.63,0,0,0,0,9.46,7.23,7.23,0,0,0,5.09,1.82,6.93,6.93,0,0,0,5-1.82,6.19,6.19,0,0,0,1.92-4.72,6.28,6.28,0,0,0-1.92-4.74,6.86,6.86,0,0,0-5-1.84A7.15,7.15,0,0,0,1292.5,414.37Zm27,34.31H1293v-15.3h26.5Zm-22.76-3.17h19v-8.92h-19Zm22.76-14.36h-3.78V407h3.78Z"/><path d="M1349.89,429.23q-4.2,7.77-14.32,13.12l-2.18-3.06q10.48-5.44,14.42-14.21l-13.59,1.35-.72-3.43,15.51-1.09a31.91,31.91,0,0,0,1.29-7.36h-14.73v-3.16h18.52A37,37,0,0,1,1349.89,429.23Zm17.22,20.07h-3.84V427.2h-9.34v-3.26h9.34V407h3.84Z"/><path d="M1409,434.62h-9.34v14.94h-3.89V434.62H1385.1v14.94h-3.78V434.62h-9.49v-3.21H1409Zm-4.73-8.82h-27.74V409.31h27.74Zm-24-3.16h20.13V412.42h-20.13Z"/><path d="M1416.69,435a96.56,96.56,0,0,0,19.14-2l.57,3.32a96.07,96.07,0,0,1-20.18,2h-3.37V411.13h3.84Zm27.18,14.32H1440V407h3.84Z"/><path d="M1471.15,414.08h-16.08v8.61h14.58v3.17h-14.58v10.06c3.84,0,7.18-.1,10-.29a82.87,82.87,0,0,0,8.74-1.06l.46,3.16a72.62,72.62,0,0,1-9,1.09c-2.94.18-6.54.26-10.79.26h-3.21V410.81h19.81Zm11.25,35.22h-3.83V407h3.83Z"/><path d="M1491,442.53a2.46,2.46,0,0,1,1.87-.7,2.53,2.53,0,0,1,1.92.7,2.42,2.42,0,0,1,.67,1.74,6.3,6.3,0,0,1,.11,1,6.63,6.63,0,0,1-.83,3.12,9,9,0,0,1-1.58,2.15,9.7,9.7,0,0,1-2.05,1.58l-1.2-1.35a6.31,6.31,0,0,0,2.34-3.16l.21-.83a2.54,2.54,0,0,1-1.46-4.23Z"/><path d="M1545.84,434.41H1529v14.84h-3.79V434.41h-16.59v-3.26h37.19Zm-11.15-24.58a11.4,11.4,0,0,1,5,3.24,7.57,7.57,0,0,1,0,9.78,11.53,11.53,0,0,1-5,3.21,22.84,22.84,0,0,1-7.53,1.14,22.55,22.55,0,0,1-7.49-1.14,11.75,11.75,0,0,1-5.06-3.21,7.51,7.51,0,0,1,0-9.78,11.61,11.61,0,0,1,5.06-3.24,22.55,22.55,0,0,1,7.49-1.14A22.84,22.84,0,0,1,1534.69,409.83Zm-15.1,3.68a4.91,4.91,0,0,0,0,8.92,18.11,18.11,0,0,0,15.15,0,4.91,4.91,0,0,0,0-8.92,18.11,18.11,0,0,0-15.15,0Z"/><path d="M1568.35,426h-15v9.86c3.53,0,6.87-.12,10-.34s6.41-.63,9.8-1.22l.31,3.22c-3.46.58-6.81,1-10.06,1.24s-6.76.36-10.53.36h-3.37V422.9h15v-8.77h-15.1v-3.21h19Zm12.39,23.29H1577V407h3.78Z"/><path d="M1622.7,434.57h-16.8v14.52h-3.79V434.57h-16.6v-3.22h37.19Zm-4.67-8.66H1590.6V409.47h26.86v3.21h-22.92v10.06H1618Z"/></g></g></svg>