<svg xmlns="http://www.w3.org/2000/svg" viewBox="0 0 1706.58 472.4"><defs><style>.cls-1{fill:#e9481e;}.cls-2{fill:#fff;}</style></defs><g id="레이어_2" data-name="레이어 2"><g id="레이어_1-2" data-name="레이어 1"><path class="cls-1" d="M758.8,472.4a117.83,117.83,0,0,1-19.48-1.63h0c-45.65-7.65-70-37.59-80.38-54.76a218.92,218.92,0,0,0-151-102.33c-1.46-.25-2.92-.48-4.4-.69-1.22-.18-2.39-.37-3.56-.56A157.22,157.22,0,0,1,434.72,29.29,156.2,156.2,0,0,1,552,2.2c70,11.74,110,63.71,124.15,108.43A218.45,218.45,0,0,0,802.58,247.74c43,17.47,81.17,66.82,71,127.32A116.8,116.8,0,0,1,758.8,472.4Zm-233-420.52a105.43,105.43,0,0,0-17.29,209.39q1.23.21,2.46.39c1.8.26,3.64.55,5.49.86A270.72,270.72,0,0,1,703.27,389.09c5.82,9.58,19.36,26.29,44.63,30.53h0a64.84,64.84,0,0,0,74.55-53.14c5.63-33.6-15.56-61-39.4-70.69A270.16,270.16,0,0,1,626.66,126.23c-9.48-30.08-36.32-65-83.25-72.88A106.77,106.77,0,0,0,525.83,51.88Z"/><path class="cls-2" d="M355.06,113.69,281.41,352.55H223.48L177.65,237.26,132.71,352.55H74.78L0,113.69H70.67l38.74,137.67,56.91-136.49h22.77L247,251.47l38-137.78Z"/><path class="cls-2" d="M999.32,279.47H975.46v73.08H909.65V113.69h103.53c51.5,0,88.82,34.6,88.82,84.53,0,29.31-14.31,53.33-37.91,67.46l47.43,86.87h-73.45ZM975.46,224h30.06c18.39,0,29-11.08,29-26s-10.59-25.87-29-25.87H975.46Z"/><path class="cls-2" d="M1123.26,113.69h66.68V352.55h-66.68Z"/><path class="cls-1" d="M1439.12,232.92c0,69.71-51.18,119.63-123.3,119.63h-96.68V113.69h96.68C1388.14,113.69,1439.12,163.13,1439.12,232.92Zm-67.46,0c0-35.43-23.57-59-58.94-59h-27.48V292.29h27.48C1348.09,292.29,1371.66,268.16,1371.66,232.92Z"/><path class="cls-1" d="M1575.39,358.59c-76.79,0-131.59-52.47-131.59-125.47s54.8-125.47,131.59-125.47c76.59,0,131.19,52.27,131.19,125.47S1652,358.59,1575.39,358.59Zm0-61.23c36.35,0,62.67-26.86,62.67-64.23s-26.32-64.24-62.67-64.24-63.07,27.05-63.07,64.23,26.71,64.24,63.07,64.24Z"/><path class="cls-2" d="M1035.89,434.41h-16.8v14.84h-3.79V434.41H998.71v-3.26h37.18Zm-11.15-24.58a11.38,11.38,0,0,1,5.06,3.24,7.57,7.57,0,0,1,0,9.78,11.51,11.51,0,0,1-5.06,3.21,25.27,25.27,0,0,1-15,0,11.75,11.75,0,0,1-5.06-3.21,7.51,7.51,0,0,1,0-9.78,11.61,11.61,0,0,1,5.06-3.24,25.27,25.27,0,0,1,15,0Zm-15.09,3.68a4.91,4.91,0,0,0,0,8.92,18.09,18.09,0,0,0,15.14,0,4.91,4.91,0,0,0,0-8.92,18.09,18.09,0,0,0-15.14,0Z"/><path class="cls-2" d="M1058.4,426h-15v9.86c3.53,0,6.87-.12,10-.34s6.42-.63,9.81-1.22l.31,3.22c-3.46.58-6.82,1-10.07,1.24s-6.76.36-10.52.36h-3.38V422.9h15v-8.77h-15.09v-3.21h19Zm12.4,23.29H1067V407h3.79Z"/><path class="cls-2" d="M1112.76,429.64h-37.19v-3h37.19ZM1108.14,442h-24.22v3.89h25.52v2.8h-29.36v-9.39h24.28v-3.53H1080V433h28.16ZM1108,417h-23.91v3.63h24.58v2.8h-28.32v-9h23.81V411h-23.91v-2.8H1108Z"/><path class="cls-2" d="M1150,428.34l.31,3a92.59,92.59,0,0,1-11.62,1.45V448h-3.84V433c-3.42.18-7.19.26-11.31.26l-.46-3.32Q1140,429.9,1150,428.34Zm-8.09-18.25a8.54,8.54,0,0,1,3.7,3.08,8,8,0,0,1,1.33,4.54,7.75,7.75,0,0,1-1.33,4.46,8.77,8.77,0,0,1-3.7,3.09,13.67,13.67,0,0,1-10.79,0,9,9,0,0,1-3.74-3.09,7.7,7.7,0,0,1-1.35-4.46,7.93,7.93,0,0,1,1.35-4.54,8.77,8.77,0,0,1,3.74-3.08,13.9,13.9,0,0,1,10.79,0Zm-10.25,3.66a4.85,4.85,0,0,0-1.89,4,4.74,4.74,0,0,0,1.89,3.89,7.52,7.52,0,0,0,4.85,1.51,7.71,7.71,0,0,0,4.93-1.51,4.72,4.72,0,0,0,1.92-3.89,4.82,4.82,0,0,0-1.92-4,7.66,7.66,0,0,0-4.93-1.54A7.47,7.47,0,0,0,1131.61,413.75Zm25.08,35.5h-3.84V407h3.84Z"/><path class="cls-2" d="M1185.84,415.33h-24.17v-3.17h10.16V407h3.89v5.13h10.12Zm-5,4.46a7,7,0,0,1,2.7,5.7,6.89,6.89,0,0,1-2.7,5.71,12.92,12.92,0,0,1-14.21,0,6.89,6.89,0,0,1-2.7-5.71,7,7,0,0,1,2.7-5.7,12.67,12.67,0,0,1,14.21,0ZM1169.29,422a4.44,4.44,0,0,0,0,7,7.09,7.09,0,0,0,4.43,1.29,7.19,7.19,0,0,0,4.49-1.29,4.42,4.42,0,0,0,0-7,7.13,7.13,0,0,0-4.49-1.3A7,7,0,0,0,1169.29,422Zm25.94,26.29h-27.39V436.18h3.84v8.92h23.55Zm-1.82-27.38h6v3.27h-6v14.52h-3.84V407h3.84Z"/><path class="cls-2" d="M1235.58,447.12H1232V432.55h-7.37v-3.27H1232v-7.37h-6.64q-3.12,11.41-14.11,18.31l-2.23-2.9a29.46,29.46,0,0,0,9.83-9.52,26.46,26.46,0,0,0,3.86-12.27h-11.92v-3.16h15.76a37.72,37.72,0,0,1-.52,6.38h6V408.07h3.58Zm8.24,2.18h-3.57V407h3.57Z"/><path class="cls-2" d="M1284.64,443.85h-37.13v-3.27h16.59V430.42h-12.24V410.5h28.32v19.92h-12.29v10.16h16.75Zm-29.09-16.59h20.85V413.67h-20.85Z"/><path class="cls-2" d="M1303.06,410.5a9.43,9.43,0,0,1,3.81,3.48,9.65,9.65,0,0,1,1.37,5.13,9.75,9.75,0,0,1-1.37,5.16,9.34,9.34,0,0,1-3.81,3.5,11.94,11.94,0,0,1-5.5,1.25,12.12,12.12,0,0,1-5.53-1.25,9.21,9.21,0,0,1-3.83-3.5,9.67,9.67,0,0,1-1.38-5.16,9.56,9.56,0,0,1,1.38-5.13,9.3,9.3,0,0,1,3.81-3.48,12.93,12.93,0,0,1,11,0Zm-10.56,3.87a6.63,6.63,0,0,0,0,9.46,7.23,7.23,0,0,0,5.09,1.82,7,7,0,0,0,5-1.82,6.19,6.19,0,0,0,1.92-4.72,6.27,6.27,0,0,0-1.92-4.74,6.89,6.89,0,0,0-5-1.84A7.16,7.16,0,0,0,1292.5,414.37Zm27,34.31H1293v-15.3h26.51Zm-22.77-3.17h19v-8.92h-19Zm22.77-14.36h-3.79V407h3.79Z"/><path class="cls-2" d="M1349.89,429.23q-4.2,7.77-14.32,13.12l-2.17-3.06q10.47-5.44,14.42-14.21l-13.59,1.35-.73-3.43,15.51-1.09a31.91,31.91,0,0,0,1.29-7.36h-14.73v-3.16h18.52A37,37,0,0,1,1349.89,429.23Zm17.22,20.07h-3.84V427.2h-9.33v-3.26h9.33V407h3.84Z"/><path class="cls-2" d="M1409,434.62h-9.34v14.94h-3.89V434.62h-10.68v14.94h-3.79V434.62h-9.49v-3.21H1409Zm-4.72-8.82h-27.75V409.31h27.75Zm-24-3.16h20.13V412.42h-20.13Z"/><path class="cls-2" d="M1416.69,435a97.31,97.31,0,0,0,19.14-2l.57,3.32a96,96,0,0,1-20.17,2h-3.38V411.13h3.84Zm27.18,14.32H1440V407h3.84Z"/><path class="cls-2" d="M1471.15,414.08h-16.08v8.61h14.58v3.17h-14.58v10.06q5.76,0,10-.29a82.55,82.55,0,0,0,8.74-1.06l.47,3.16a73,73,0,0,1-9,1.09c-2.93.18-6.53.26-10.78.26h-3.22V410.81h19.81Zm11.26,35.22h-3.84V407h3.84Z"/><path class="cls-2" d="M1491,442.53a2.45,2.45,0,0,1,1.86-.7,2.53,2.53,0,0,1,1.92.7,2.42,2.42,0,0,1,.68,1.74,6.07,6.07,0,0,1,.1,1,6.63,6.63,0,0,1-.83,3.12,8.71,8.71,0,0,1-1.58,2.15,9.78,9.78,0,0,1-2.05,1.58l-1.19-1.35a6.23,6.23,0,0,0,2.33-3.16l.21-.83a2.32,2.32,0,0,1-2.13-2.44A2.48,2.48,0,0,1,1491,442.53Z"/><path class="cls-2" d="M1545.84,434.41H1529v14.84h-3.79V434.41h-16.6v-3.26h37.19Zm-11.15-24.58a11.43,11.43,0,0,1,5.06,3.24,7.61,7.61,0,0,1,0,9.78,11.57,11.57,0,0,1-5.06,3.21,22.82,22.82,0,0,1-7.52,1.14,22.57,22.57,0,0,1-7.5-1.14,11.71,11.71,0,0,1-5.05-3.21,7.48,7.48,0,0,1,0-9.78,11.57,11.57,0,0,1,5.05-3.24,22.57,22.57,0,0,1,7.5-1.14A22.82,22.82,0,0,1,1534.69,409.83Zm-15.09,3.68a4.91,4.91,0,0,0,0,8.92,18.09,18.09,0,0,0,15.14,0,4.91,4.91,0,0,0,0-8.92,18.09,18.09,0,0,0-15.14,0Z"/><path class="cls-2" d="M1568.35,426h-15v9.86c3.53,0,6.86-.12,10-.34s6.41-.63,9.8-1.22l.31,3.22c-3.46.58-6.81,1-10.06,1.24s-6.76.36-10.53.36h-3.37V422.9h15v-8.77h-15.09v-3.21h19Zm12.4,23.29H1577V407h3.79Z"/><path class="cls-2" d="M1622.71,434.57H1605.9v14.52h-3.79V434.57h-16.59v-3.22h37.19Zm-4.67-8.66H1590.6V409.47h26.87v3.21h-22.93v10.06H1618Z"/></g></g></svg>